<svg id="branchescomplete" xmlns="http://www.w3.org/2000/svg" xmlns:xlink="http://www.w3.org/1999/xlink" viewBox="0 0 826.423000 1132.283000" shape-rendering="geometricPrecision" text-rendering="geometricPrecision"><g id="branchescomplete-group-1" transform="matrix(1 0 0 1 -319.27300000000002 -1236.25000000000000)"><g id="branchescomplete-path-1" transform="matrix(0.49627309546385 0.06093451172146 -0.09749521875433 0.79403695274215 855.84193597999956 1508.78333899999961)" opacity="0"><path id="branchescomplete-path1" d="M370.748810,476.174896C367.545410,474.572174,332.965088,457.191040,292.980072,433.951538C268.449005,419.693787,246.714493,406.053955,228.380341,393.410706C205.477417,377.616852,187.851913,363.347046,175.993500,350.997437C172.480423,347.338959,152.401413,342.071625,122.007919,334.098450C94.382919,326.851624,60.002666,317.832611,24.613832,306.454529C5.396750,300.275940,-12.340167,293.949860,-28.104166,287.651947C-46.349667,280.362701,-62.699417,272.817017,-76.699165,265.224518C-97.732834,253.817276,-118.457169,241.218277,-138.296494,227.777527C-154.167664,217.025116,-169.511002,205.713196,-183.900253,194.155777C-202.602509,179.134338,-214.834656,167.575760,-219.632553,162.888809C-214.338638,165.609085,-202.068100,171.876968,-185.509171,180.101120C-164.902328,190.335617,-133.250504,205.779205,-99.484497,221.231857C-61.528084,238.602203,-28.690500,252.443787,-1.884000,262.371857C14.039917,268.269531,27.987167,272.834625,39.570415,275.940369C52.337833,279.363617,62.559502,281.099945,69.951584,281.101196C69.954018,281.101196,69.956734,281.101196,69.959167,281.101196C73.580597,281.101196,76.602905,280.683807,78.942665,279.860535C81.428253,278.985962,83.224998,277.627533,84.282913,275.823212C85.492668,273.759796,86.316002,270.422546,86.729919,265.904022C87.123749,261.604706,87.159752,256.129211,86.836830,249.629532C86.223167,237.278610,84.326752,221.119537,81.200249,201.601196C75.372917,165.222031,65.516251,118.741531,53.445835,70.721863L53.438000,70.690613L53.426167,70.660614C44.500916,47.993530,32.706585,20.280615,18.370916,-11.708385C6.903500,-37.297218,-6.206917,-65.664635,-20.596001,-96.022720C-41.388222,-139.889938,-58.923424,-175.386719,-63.875408,-185.367950C-61.178455,-182.606476,-56.149216,-177.392990,-49.629833,-170.347549C-40.483002,-160.462723,-26.448999,-144.847809,-11.534750,-126.593468C5.224916,-106.080467,19.657333,-86.483803,31.361584,-68.347885C45.981415,-45.694386,56.358665,-25.274385,62.205082,-7.654969C68.061081,9.993032,74.206833,31.835281,80.471748,57.264782C85.484581,77.612617,90.584251,100.288780,95.628998,124.663368C104.218750,166.166107,109.741333,198.627777,109.796082,198.950775L109.796753,198.954361L109.797333,198.957870C109.818336,199.071442,110.329247,201.795609,111.975998,206.624039C113.491249,211.066940,116.296501,218.193954,121.055832,226.915955C126.401169,236.712036,133.073578,246.486450,140.887497,255.967697C150.650665,267.814026,162.234329,279.234100,175.316666,289.910767C193.829910,305.019623,219.185837,322.213043,250.680252,341.013458C275.867676,356.048950,305.017670,372.141602,337.320404,388.844452C388.094177,415.097992,430.925781,434.686859,437.561981,437.701569L370.748810,476.174896Z" transform="matrix(1 0 0 1 -0.99567152579145 -2.78814004460725)" fill="rgb(44,44,44)" stroke="none" stroke-width="1"/><path id="branchescomplete-path2" d="M-62.009857,-182.729004C-55.661774,-169.901764,-39.282791,-136.615265,-20.144257,-96.236877C-5.753586,-65.875641,7.358337,-37.504883,18.827255,-11.912811C33.166000,20.083191,44.963333,47.803284,53.891418,70.477371L53.914993,70.537445L53.930756,70.600037C66.004578,118.633286,75.864410,165.128937,81.694000,201.522125C84.823334,221.058365,86.721664,237.235703,87.336166,249.604782C87.660248,256.127777,87.623840,261.627045,87.227829,265.949707C86.801254,270.606537,85.979004,273.918854,84.714249,276.076019C83.594910,277.985107,81.708923,279.416962,79.108582,280.331787C76.714249,281.174103,73.633423,281.601196,69.951660,281.601196C62.515915,281.601196,52.250580,279.860107,39.440994,276.426270C27.842911,273.317291,13.880753,268.747864,-2.057663,262.845184C-28.875748,252.913116,-61.724915,239.066696,-99.692596,221.690369C-133.464508,206.234283,-165.121582,190.787201,-185.731598,180.550354C-199.686005,173.619263,-210.596252,168.076904,-216.852966,164.875946C-210.967255,170.491058,-199.675476,180.843994,-183.587158,193.766022C-169.208405,205.314865,-153.876068,216.618774,-138.016083,227.363617C-118.190247,240.795197,-97.480072,253.385529,-76.460754,264.784943C-62.478088,272.368286,-46.146088,279.905609,-27.918579,287.187683C-12.165161,293.481293,5.560837,299.803436,24.767090,305.978516C60.143005,317.352448,94.515915,326.369537,122.135086,333.614868C136.821915,337.467712,149.505997,340.795105,158.840088,343.576874C169.367584,346.714355,174.605499,348.830017,176.354172,350.651123C188.188828,362.975952,205.787659,377.223267,228.661591,392.997284C246.984421,405.632782,268.707092,419.265381,293.226074,433.516113C332.369843,456.267059,366.333801,473.402222,370.732269,475.607452L436.469086,437.753967C432.582642,435.983704,422.543335,431.378113,408.531311,424.712280C378.229065,410.296936,352.956177,397.492126,337.090759,389.288513C304.778992,372.581116,275.620087,356.483459,250.423920,341.442780C218.908661,322.629944,193.532578,305.422363,175.000580,290.298187C161.892746,279.600769,150.285675,268.157288,140.501663,256.285706C132.667572,246.780121,125.977417,236.979279,120.616920,227.155457C115.840668,218.402374,113.024246,211.246857,111.502747,206.785446C109.844330,201.922699,109.326836,199.163605,109.305664,199.048523L109.304337,199.041443L109.303169,199.034363C109.248413,198.711456,103.727333,166.258698,95.139420,124.764694C90.095917,100.396194,84.997665,77.726196,79.986252,57.384445C73.724503,31.967529,67.582413,10.138123,61.730591,-7.497559C55.897751,-25.075714,45.539841,-45.456055,30.944336,-68.072296C19.251083,-86.191650,4.830917,-105.771973,-11.915665,-126.269470C-26.821503,-144.513885,-40.848175,-160.120880,-49.990265,-170.000885C-55.007874,-175.423492,-59.142609,-179.760620,-62.009857,-182.729004M-65.718750,-187.953125C-65.718750,-187.953125,36.988251,-85.238312,62.679672,-7.812469C88.371078,69.613281,110.289085,198.867188,110.289085,198.867188C110.289085,198.867188,118.389503,242.806442,175.632828,289.523438C256.714233,355.695038,438.656250,437.648438,438.656250,437.648438L370.765564,476.742188C370.765564,476.742188,227.725830,405.594025,175.632828,351.343689C165.909500,341.217773,15.339828,315.708954,-76.937500,265.664032C-169.214844,215.619110,-222.281250,160.960938,-222.281250,160.960938C-222.281250,160.960938,8.320557,280.601196,69.951675,280.601196C76.988647,280.601196,81.814835,279.044128,83.851578,275.570282C93.451164,259.197449,76.162170,163.145279,52.960922,70.843781C13.843750,-28.499969,-65.718750,-187.953125,-65.718750,-187.953125Z" fill="rgb(112,112,112)" stroke="none" stroke-width="1"/></g><g id="branchescomplete-path-2" transform="matrix(0.48063090665836 0.13781847323476 -0.13781847323476 0.48063090665836 1050.01803423000001 1811.67933600000129)" opacity="0"><path id="branchescomplete-path3" d="M-478.960114,403.013458C-499.112946,403.014099,-521.330505,400.518097,-544.995605,395.594635C-563.941467,391.653015,-583.850098,386.156006,-604.168518,379.256287C-622.249207,373.116455,-637.311462,366.980103,-646.763428,362.913544C-650.975403,361.101379,-654.475403,359.529175,-657.139893,358.304413C-647.367249,359.659210,-627.544922,362.308685,-603.878784,364.933624C-584.108521,367.126556,-565.561462,368.873810,-548.752747,370.127014C-527.732117,371.694183,-509.383575,372.488922,-494.216583,372.488922C-481.837036,372.488922,-471.383209,371.956726,-463.145477,370.907196C-458.678680,370.338104,-454.770569,369.604553,-451.529755,368.726898C-448.087585,367.794739,-445.287750,366.669189,-443.207947,365.381470C-434.564026,360.029449,-421.968414,354.165466,-408.633301,347.957184C-394.130493,341.205353,-379.133942,334.223541,-366.936676,326.906830C-360.295319,322.922913,-355.175659,319.256744,-351.285034,315.698730C-349.142120,313.739014,-347.364502,311.791992,-346.001678,309.911835C-344.541046,307.896820,-343.504120,305.886261,-342.919769,303.936188C-341.776581,300.121552,-342.303223,296.394287,-344.484863,292.857819C-348.596497,286.192902,-355.077118,277.513000,-363.746857,267.059082C-370.669312,258.712006,-378.999298,249.215912,-388.505493,238.834641C-404.024109,221.887405,-417.697113,208.035629,-418.914063,206.805389L-494.588257,79.470619L-369.506042,208.119003L-369.453217,208.173370L-369.392853,208.219086C-369.347931,208.253098,-364.815857,211.676086,-357.072479,216.703094C-349.932861,221.338272,-338.512756,228.332458,-324.653320,235.330460C-309.069031,243.199280,-293.638123,249.469910,-278.789124,253.968185C-260.202850,259.598724,-242.477127,262.453644,-226.104492,262.453644C-223.668488,262.453644,-221.226212,262.389923,-218.845673,262.264282C-201.289307,261.337555,-185.275497,259.298828,-171.248856,256.204742C-158.562851,253.406372,-147.475586,249.744644,-138.295212,245.321457C-129.967499,241.309006,-123.328583,236.739639,-118.562943,231.740097C-116.343307,229.411636,-114.549675,226.999451,-113.231766,224.570724C-112.121681,222.524963,-111.344696,220.460815,-110.915901,218.421265L30.632782,234.169052L30.632782,333.800018L-57.058945,318.889191L-57.206310,318.864105L-57.354584,318.883179L-174.182449,333.960266C-175.195694,333.578461,-179.240341,332.120544,-185.634766,330.646820C-189.903854,329.662994,-194.335037,328.879089,-198.805038,328.317017C-204.392044,327.614471,-210.056854,327.258179,-215.642044,327.258179C-226.582672,327.258179,-237.339676,328.617554,-247.614304,331.298462C-260.039490,334.540466,-271.887939,339.755920,-282.830322,346.799835C-296.685120,355.718445,-313.994934,364.123016,-334.279114,371.779999C-365.158844,383.436646,-402.041931,392.996552,-443.903870,400.194183C-454.781586,402.064453,-466.576233,403.013000,-478.960114,403.013458Z" fill="rgb(44,44,44)" stroke="none" stroke-width="1"/><path id="branchescomplete-path4" d="M-489.403381,86.237762L-418.116943,206.189423C-416.441711,207.884430,-402.990997,221.534943,-387.768036,238.159271C-378.250854,248.552551,-369.909943,258.061096,-362.977142,266.420715C-354.277771,276.910370,-347.769775,285.628357,-343.633759,292.332733C-341.295685,296.122742,-340.733215,300.123291,-341.961853,304.223206C-342.578583,306.281097,-343.665314,308.392456,-345.191956,310.498657C-346.594482,312.433472,-348.417389,314.431274,-350.610138,316.436554C-354.550659,320.040161,-359.722870,323.745544,-366.422211,327.764282C-378.664307,335.107910,-393.685059,342.101013,-408.211212,348.863708C-421.518677,355.059082,-434.088135,360.910889,-442.681580,366.231720C-444.843689,367.570465,-447.732666,368.734650,-451.268311,369.692200C-454.553314,370.581726,-458.506836,371.324280,-463.019135,371.899170C-471.298676,372.954102,-481.794952,373.488922,-494.216583,373.488922C-509.408325,373.488922,-527.781921,372.693359,-548.827148,371.124268C-565.647766,369.870178,-584.206848,368.121735,-603.989014,365.927551C-623.026245,363.816010,-639.579285,361.688385,-650.418640,360.230957C-649.138977,360.794922,-647.769104,361.392029,-646.314880,362.017456C-636.876648,366.076721,-621.837036,372.201630,-603.786926,378.328644C-583.514648,385.209900,-563.653503,390.691833,-544.755310,394.621918C-521.170959,399.526550,-499.034302,402.013367,-478.960327,402.013367C-466.635315,402.013367,-454.897583,401.069733,-444.073303,399.208557C-402.273926,392.021729,-365.452667,382.478638,-334.632324,370.844452C-314.413849,363.212280,-297.167297,354.839539,-283.371582,345.958923C-272.340118,338.857635,-260.394592,333.599548,-247.866760,330.330811C-237.509766,327.628479,-226.667755,326.258179,-215.642029,326.258179C-210.015320,326.258179,-204.308502,326.617004,-198.680298,327.324829C-194.176849,327.891113,-189.712128,328.680908,-185.410217,329.672363C-179.382599,331.061523,-175.405273,332.443604,-174.065491,332.936920L-57.482605,317.891479L-57.186035,317.853180L-56.891296,317.903259L29.632751,332.615540L29.632751,235.063828L-110.144104,219.513275C-110.616760,221.356781,-111.356384,223.211273,-112.352783,225.047638C-113.712769,227.553925,-115.558655,230.037811,-117.839050,232.430084C-122.688141,237.517090,-129.424500,242.157455,-137.861115,246.222275C-147.111115,250.679092,-158.271942,254.366180,-171.033478,257.181274C-185.113403,260.287109,-201.182037,262.333282,-218.792938,263.262817C-221.191498,263.389465,-223.651489,263.453644,-226.104492,263.453644C-242.575500,263.453644,-260.398682,260.584290,-279.079132,254.925278C-293.983307,250.410187,-309.468323,244.117905,-325.104034,236.223099C-339.003479,229.205017,-350.456573,222.190460,-357.617035,217.541809C-365.390961,212.494995,-369.812225,209.155914,-369.996582,209.016174L-370.117401,208.924744L-370.222931,208.816101L-489.403381,86.237762M-499.773407,72.703094L-368.789032,207.421906C-368.789032,207.421906,-297.453278,261.453613,-226.104492,261.453613C-223.700684,261.453613,-221.299500,261.392395,-218.898407,261.265625C-145.228485,257.376892,-114.506592,234.881180,-111.730286,217.324463L31.632751,233.274017L31.632751,334.984375L-57.226563,319.875000L-174.304688,334.984375C-174.304688,334.984375,-191.338043,328.258240,-215.642029,328.258240C-234.909180,328.258240,-258.745361,332.484924,-282.289032,347.640625C-300.977051,359.670532,-347.484406,384.630829,-443.734406,401.179626C-455.172302,403.146240,-467.004547,404.013367,-478.960266,404.013367C-567.612000,404.013367,-663.531250,356.390625,-663.531250,356.390625C-663.531250,356.390625,-560.602173,371.488892,-494.216553,371.488892C-470.801819,371.488892,-451.939636,369.611664,-443.734406,364.531281C-412.265686,345.046906,-329.440765,319.148804,-345.335938,293.382813C-363.254852,264.336365,-419.710938,207.421906,-419.710938,207.421906L-499.773407,72.703094Z" fill="rgb(112,112,112)" stroke="none" stroke-width="1"/></g><g id="branchescomplete-path-5" transform="matrix(0.49384420205640 -0.07821703200251 0.07821703200251 0.49384420205640 1020.54915490999383 2099.10965300000043)" opacity="0"><path id="branchescomplete-path5" d="M-57.605621,292.396667C-60.532269,289.862793,-72.102036,279.711823,-83.282959,268.056702C-90.829727,260.189850,-96.723656,253.189072,-100.801033,247.248917C-105.842033,239.904999,-108.087418,234.217300,-107.474884,230.343689C-107.020264,227.468994,-106.987343,224.623383,-107.376961,221.885925C-107.754883,219.230377,-108.540649,216.604767,-109.712578,214.082077C-111.934036,209.299698,-115.633881,204.693314,-120.709343,200.390930C-125.401039,196.413925,-131.405731,192.580612,-138.556732,188.997620C-145.102036,185.718079,-152.807724,182.548386,-161.459732,179.576767C-176.144501,174.533081,-193.766647,169.937775,-215.333191,165.528381C-233.893967,161.733459,-252.056580,158.743546,-268.081116,156.105545C-291.021729,152.328995,-309.141663,149.346069,-313.477417,146.286774C-315.781189,144.661148,-324.727264,143.485458,-339.548584,141.537613C-356.976868,139.247147,-380.845734,136.110306,-408.690735,130.311539C-423.932648,127.137459,-438.751434,123.480843,-452.735352,119.443306C-469.086945,114.722153,-484.850037,109.322922,-499.586792,103.395538C-561.989197,78.296074,-594.410095,34.443306,-618.082886,2.423385C-622.812988,-3.974635,-627.076416,-9.741335,-631.174438,-14.837021C-624.425476,-8.801766,-614.298401,0.018748,-601.909912,10.086769C-584.894653,23.914923,-568.216248,36.376999,-552.338135,47.126923C-532.409241,60.619232,-513.955261,71.249077,-497.488800,78.721230C-488.093719,82.984535,-479.214661,86.272842,-471.098206,88.494766C-462.322418,90.897232,-454.209259,92.115387,-446.984039,92.115387C-445.878723,92.115387,-444.776581,92.086845,-443.708038,92.030540C-429.025116,91.257080,-417.638275,91.150459,-407.520355,91.150459C-406.507202,91.150459,-405.532257,91.151382,-404.594666,91.152229C-403.725800,91.153076,-402.889038,91.153847,-402.083588,91.153847C-390.494110,91.153847,-386.017487,90.944618,-384.985870,88.726234C-384.457642,87.590309,-384.940338,86.078850,-386.599792,83.672310C-388.073883,81.534691,-390.479279,78.680229,-393.524658,75.066307C-397.468567,70.386154,-402.376892,64.561539,-408.242737,56.853462C-411.791412,52.190308,-423.252411,44.849155,-437.762573,35.555000C-448.036957,28.973923,-459.682190,21.514769,-470.644714,13.614077C-483.294647,4.497231,-492.701416,-3.536000,-499.402588,-10.944769C-516.255737,-29.577461,-534.876709,-51.736229,-554.748352,-76.805618C-570.647339,-96.863464,-587.377747,-118.818382,-604.474731,-142.060608C-625.361206,-170.454636,-641.735413,-193.909561,-649.395020,-205.006348C-639.319458,-193.578140,-616.388428,-167.782562,-588.195679,-137.437225C-565.875732,-113.413231,-544.674500,-91.281075,-525.180786,-71.655464C-500.810425,-47.120155,-479.054260,-26.454693,-460.516724,-10.233077C-441.974030,5.993077,-423.565033,20.474077,-405.801117,32.807461C-391.586029,42.676998,-377.749115,51.201771,-364.674744,58.145000C-353.035492,64.326080,-344.165588,68.084305,-338.774261,70.148689C-332.996185,72.361168,-329.946350,73.136276,-329.744141,73.186806C-329.419861,73.272148,-299.763000,81.070686,-265.965485,88.768768C-246.102966,93.292923,-228.717041,96.897766,-214.290649,99.483383C-196.238190,102.718849,-182.784958,104.359383,-174.304657,104.359383C-157.364960,104.359383,-140.810577,100.070694,-123.695419,91.248230C-108.892654,83.617767,-95.973114,73.808151,-84.574341,65.153305C-77.166809,59.528770,-70.170036,54.216232,-63.818806,50.426384C-56.835728,46.259460,-51.295498,44.318768,-46.383266,44.318768C-42.887882,44.318768,-39.733269,45.302845,-36.739113,47.327309C-33.567337,49.471905,-30.649416,52.725231,-27.822918,57.269165L-57.605621,292.396667Z" fill="rgb(44,44,44)" stroke="none" stroke-width="1"/><path id="branchescomplete-path6" d="M-57.984055,291.405273L-28.341419,57.382900C-31.100689,52.978233,-33.941601,49.822498,-37.019211,47.741501C-39.927959,45.774834,-42.990959,44.818748,-46.383293,44.818748C-51.201458,44.818748,-56.660294,46.737083,-63.562626,50.855751C-69.889877,54.631332,-76.875793,59.935665,-84.271957,65.551498C-95.686958,74.218666,-108.624878,84.042252,-123.466293,91.692665C-140.654037,100.552498,-157.283371,104.859413,-174.304703,104.859413C-182.814545,104.859413,-196.297455,103.216248,-214.378967,99.975586C-228.812881,97.388580,-246.206467,93.782166,-266.076538,89.256332C-299.671631,81.604385,-329.177460,73.852867,-329.862061,73.672775C-330.042816,73.627716,-333.122589,72.848206,-338.953125,70.615669C-344.357452,68.546249,-353.247528,64.779503,-364.909210,58.586582C-378.001038,51.634083,-391.854950,43.098915,-406.086212,33.218166C-423.865387,20.874166,-442.289215,6.381667,-460.845947,-9.856750C-479.392212,-26.086000,-501.156952,-46.759583,-525.535522,-71.303085C-545.033142,-90.932663,-566.238281,-113.068832,-588.561951,-137.096924C-612.365112,-162.717484,-632.420288,-185.097870,-644.154602,-198.326492C-635.425781,-185.792023,-621.283020,-165.754517,-604.074646,-142.360672C-586.980896,-119.122665,-570.253784,-97.171997,-554.358154,-77.118332C-534.492615,-52.056499,-515.878235,-29.905333,-499.031799,-11.280167C-492.354553,-3.897833,-482.973450,4.112417,-470.352448,13.208417C-459.401123,21.101084,-447.761963,28.556334,-437.493042,35.133915C-422.941132,44.454750,-411.447205,51.817001,-407.844879,56.550667C-401.986542,64.248749,-397.082794,70.068085,-393.142456,74.743919C-390.088379,78.368164,-387.676056,81.230835,-386.188293,83.388420C-384.937286,85.202583,-383.762299,87.280586,-384.532532,88.937080C-385.744965,91.544083,-390.789368,91.653915,-402.083710,91.653915C-402.889374,91.653915,-403.726196,91.653084,-404.595032,91.652252C-405.532379,91.651337,-406.506958,91.650414,-407.519867,91.650414C-417.631042,91.650414,-429.010040,91.756920,-443.681702,92.529831C-444.758636,92.586670,-445.869629,92.615417,-446.984039,92.615417C-454.253876,92.615417,-462.411469,91.391335,-471.230225,88.977081C-479.372131,86.748169,-488.276306,83.450836,-497.695374,79.176666C-514.187439,71.692833,-532.666199,61.049084,-552.618347,47.540916C-568.508545,36.782917,-585.198608,24.312084,-602.225098,10.474833C-612.282837,2.301002,-620.850647,-5.050824,-627.332520,-10.759524C-624.282593,-6.803645,-621.104065,-2.504254,-617.680725,2.126167C-594.043518,34.098000,-561.671265,77.885002,-499.400299,102.931664C-484.679138,108.852753,-468.932129,114.246498,-452.596802,118.962914C-438.624878,122.996918,-423.818542,126.650497,-408.588867,129.822083C-380.762207,135.617004,-356.904053,138.752411,-339.483551,141.041916C-332.165863,142.003586,-326.385864,142.763168,-321.974121,143.501755C-316.996124,144.335083,-314.368866,145.045837,-313.189117,145.878250C-311.294037,147.215424,-306.285706,148.692749,-297.877960,150.394745C-289.973206,151.994919,-279.790558,153.671173,-267.999878,155.612167C-251.970871,158.250916,-233.803299,161.241669,-215.233047,165.038498C-193.645126,169.452255,-176.002625,174.053085,-161.297287,179.103836C-152.624298,182.082748,-144.897964,185.261078,-138.332703,188.550583C-131.146210,192.151413,-125.108040,196.006744,-120.386040,200.009583C-115.254959,204.359085,-111.511292,209.022919,-109.259041,213.871506C-108.066544,216.438660,-107.266708,219.111420,-106.881874,221.815506C-106.485291,224.602249,-106.518623,227.497910,-106.980957,230.421829C-107.282959,232.331421,-106.838791,234.759079,-105.660873,237.637421C-104.553040,240.344589,-102.779793,243.482330,-100.390541,246.963333C-96.329292,252.880417,-90.453796,259.859009,-82.927040,267.705322C-72.510963,278.563782,-61.754818,288.116608,-57.984055,291.405273M-57.226543,293.382843C-57.226543,293.382843,-110.744957,247.822327,-107.968712,230.265671C-97.982376,167.113251,-297.365631,158.267334,-313.765625,146.695328C-321.219208,141.436005,-409.998047,139.968750,-499.773468,103.859413C-579.214539,71.906639,-610.184692,9.602955,-636.175720,-20.033552C-604.356079,9.091681,-506.744781,91.615387,-446.984039,91.615387C-445.886078,91.615387,-444.806152,91.587708,-443.734375,91.531250C-428.391815,90.723015,-416.470093,90.650444,-407.519897,90.650444C-405.568024,90.650444,-403.758453,90.653885,-402.083740,90.653885C-374.508362,90.653885,-383.856445,89.723938,-408.640625,57.156250C-417.170868,45.947083,-474.133972,17.737417,-499.773468,-10.609333C-573.693481,-92.334747,-654.546875,-211.632828,-654.546875,-211.632828C-654.546875,-211.632828,-541.419861,-81.693336,-460.187469,-10.609333C-378.955048,60.474583,-329.617218,72.703163,-329.617218,72.703163C-329.617218,72.703163,-211.354126,103.859413,-174.304703,103.859413C-111.334557,103.859413,-73.839951,43.818764,-46.383289,43.818764C-39.468777,43.818764,-33.192909,47.624557,-27.304710,57.156250C-27.304361,57.156815,-27.304178,57.157112,-27.303829,57.157677C-27.304415,57.156727,-27.304710,57.156250,-27.304710,57.156250L-57.226543,293.382843ZM-24.768005,61.262585C-24.768084,61.262459,-25.400038,60.239471,-27.295954,57.170425C-27.133522,57.433365,-24.767857,61.262825,-24.768005,61.262585ZM-27.295954,57.170425C-27.296017,57.170322,-27.296053,57.170265,-27.296114,57.170166L-27.295954,57.170425ZM-27.296114,57.170166C-27.296461,57.169601,-27.296587,57.169399,-27.296934,57.168839C-27.296673,57.169262,-27.296389,57.169720,-27.296114,57.170166ZM-27.296934,57.168839C-27.296963,57.168789,-27.296986,57.168755,-27.297014,57.168709L-27.296934,57.168839ZM-27.297014,57.168709C-27.297361,57.168144,-27.298517,57.166275,-27.298864,57.165714C-27.298296,57.166634,-27.297665,57.167656,-27.297014,57.168709ZM-27.298864,57.165714C-27.301090,57.162109,-27.302685,57.159527,-27.303646,57.157970C-27.301905,57.160789,-27.300604,57.162895,-27.298864,57.165714ZM-27.303646,57.157970L-27.303829,57.157677C-27.303770,57.157772,-27.303711,57.157864,-27.303646,57.157970ZM-636.175720,-20.033552C-642.994629,-26.274994,-646.792297,-30.064497,-646.549072,-30.064497C-646.512634,-30.064497,-646.385437,-29.979378,-646.164063,-29.804667C-642.855774,-27.193794,-639.556824,-23.888874,-636.175720,-20.033552Z" fill="rgb(112,112,112)" stroke="none" stroke-width="1"/></g><g id="branchescomplete-path-6" transform="matrix(0.45582563019268 0 0 0.41524336612765 881.82793322499981 1694.22979528499945)" opacity="0"><path id="branchescomplete-path7" d="M229.254379,302.084259C222.015976,295.173950,185.667542,260.615509,157.752396,236.686111C130.991516,213.746185,73.119072,163.279663,69.623566,160.231049C68.591515,157.993134,58.892551,137.065002,46.462566,113.737190C38.770481,99.301102,31.551315,86.781021,25.005732,76.524521C16.795982,63.660355,9.613732,54.321938,3.658565,48.768688C-20.336435,26.392855,-40.500519,8.943770,-60.000767,-7.930812C-85.777519,-30.236729,-108.039017,-49.500896,-132.245773,-74.269226C-148.117355,-90.509148,-168.245178,-107.691811,-192.070023,-125.340065C-211.118271,-139.449982,-232.561432,-153.889313,-255.803848,-168.256973C-276.479523,-181.037979,-294.782440,-191.395737,-306.495941,-197.834152C-311.893524,-200.800995,-316.427063,-203.231491,-319.860901,-205.048080C-314.263550,-203.648773,-305.978943,-201.514679,-295.816010,-198.710403C-277.938934,-193.777481,-250.425934,-185.702393,-220.876678,-175.245972C-187.680099,-163.498901,-158.733017,-151.202728,-134.839600,-138.699142C-120.668938,-131.283569,-108.144516,-123.713226,-97.614349,-116.198311C-86.057098,-107.950394,-76.622932,-99.569733,-69.574020,-91.289230C-58.718185,-78.536896,-48.812767,-67.298309,-39.291519,-56.931396C-27.071518,-43.625980,-15.665185,-31.986145,-5.389435,-22.335146C6.907232,-10.786229,17.909065,-1.780229,27.310482,4.432854C32.560230,7.902187,37.420815,10.572104,41.757317,12.368604C46.428566,14.303771,50.637981,15.285021,54.268650,15.285021C54.760731,15.285021,55.250149,15.267021,55.723232,15.231521C60.042564,14.907604,63.445480,13.658688,66.126396,11.413354C68.628395,9.317938,70.512566,6.328521,71.886482,2.274271C74.449234,-5.288063,75.081146,-16.000063,75.881233,-29.562063C77.227318,-52.379230,79.070816,-83.628395,91.534897,-121.098396C97.742813,-139.761063,104.548485,-163.079727,111.762817,-190.406479C117.532478,-212.261139,123.575485,-236.715561,129.723892,-263.090637C137.388336,-295.968597,143.321838,-323.737244,145.978638,-336.391602C146.725082,-323.143951,148.137115,-293.695648,148.191986,-259.715057C148.235565,-232.683151,147.424484,-208.115646,145.781311,-186.694901C143.729813,-159.952316,140.369812,-138.079056,135.794647,-121.682816C133.453644,-113.293648,131.998062,-100.910645,131.468323,-84.877815C131.045731,-72.089897,131.206238,-56.950645,131.945404,-39.880562C133.203232,-10.830480,135.737564,14.088021,135.763062,14.336354L135.764893,14.354521L135.767395,14.372687L145.533066,84.278938L145.570816,84.549019L145.740402,84.762604L193.490402,144.879852L193.567734,144.977188L193.666565,145.052597L254.055176,191.164215L229.254379,302.084259Z" transform="matrix(1 0 0 1 0.35572164500059 -3.33517007500114)" fill="rgb(44,44,44)" stroke="none" stroke-width="1"/><path id="branchescomplete-path8" d="M145.383286,-328.741150C142.296112,-314.232666,137.100327,-290.328491,130.697784,-262.863556C124.547119,-236.479141,118.501785,-212.015228,112.729614,-190.151230C105.509949,-162.804230,98.698288,-139.465302,92.483704,-120.782814C86.979538,-104.235893,83.070541,-87.544395,80.533203,-69.754311C78.351791,-54.459812,77.569611,-41.201145,76.879532,-29.503147C76.075027,-15.866062,75.439529,-5.094646,72.833542,2.595272C71.399124,6.828186,69.415207,9.963436,66.768448,12.180019C63.921616,14.564270,60.333206,15.888603,55.797867,16.228771C55.299538,16.266106,54.785034,16.285023,54.268616,16.285023C50.505951,16.285023,46.167786,15.278187,41.374535,13.292439C36.979202,11.471603,32.061951,8.771523,26.759117,5.267105C17.310532,-0.977146,6.263870,-10.018646,-6.074051,-21.606230C-16.367714,-31.273979,-27.791466,-42.931480,-40.028049,-56.254982C-49.557884,-66.631317,-59.471550,-77.879059,-70.335381,-90.641068C-77.330467,-98.858307,-86.702629,-107.182228,-98.191635,-115.381729C-108.683136,-122.869392,-121.166298,-130.414810,-135.294373,-137.808563C-159.143127,-150.289490,-188.043121,-162.565811,-221.191544,-174.296570C-250.712128,-184.743561,-278.200867,-192.812057,-296.062805,-197.741058C-302.151642,-199.421295,-307.564941,-200.860580,-312.130066,-202.045380C-310.243134,-201.024887,-308.199524,-199.911652,-306.014221,-198.710480C-294.290527,-192.266403,-275.971710,-181.899643,-255.278046,-169.107559C-232.011963,-154.725311,-210.545471,-140.270142,-191.474884,-126.143646C-167.607391,-108.463898,-147.439209,-91.245979,-131.530640,-74.968231C-107.353210,-50.229813,-85.106384,-30.978479,-59.346714,-8.687313C-39.839550,8.193356,-19.668217,25.648689,4.340538,48.037354C10.357201,53.648018,17.593620,63.051437,25.848618,75.986519C32.408287,86.264938,39.640701,98.807938,47.345032,113.266937C59.485916,136.052155,69.025589,156.553726,70.441772,159.617798C75.256714,163.816910,131.989136,213.284210,158.403198,235.926849C184.957489,258.689697,219.132202,291.058807,228.664398,300.139801L252.939575,191.570496L193.059692,145.847351L192.862030,145.696442L192.707367,145.501694L144.957367,85.384521L144.618118,84.957436L144.542694,84.417274L134.777039,14.511021L134.771957,14.474770L134.768204,14.438271C134.742706,14.189686,132.205444,-10.758146,130.946289,-39.837311C130.206116,-56.932732,130.045456,-72.097641,130.468872,-84.910812C131.001282,-101.023315,132.469040,-113.485649,134.831375,-121.951645C139.388702,-138.283813,142.737198,-160.090057,144.783707,-186.764725C146.425034,-208.157730,147.235291,-232.696899,147.191956,-259.700562C147.146210,-288.201416,146.144867,-313.514740,145.383286,-328.741150M146.523453,-343.921906C146.523453,-343.921906,156.894531,-193.578140,136.757782,-121.414063C126.588867,-84.971397,136.757782,14.234356,136.757782,14.234356L146.523453,84.140602L194.273438,144.257767L255.170715,190.757767L229.843689,304.031281C229.843689,304.031281,188.427460,264.298431,157.101532,237.445282C129.319122,213.629684,68.804703,160.843765,68.804703,160.843765C68.804703,160.843765,28.814865,73.594772,2.976532,49.500023C-53.001213,-2.700397,-90.560135,-30.185646,-132.960968,-73.570313C-202.381714,-144.601898,-327.632813,-207.968735,-327.632813,-207.968735C-327.632813,-207.968735,-128.383636,-161.916656,-68.812462,-91.937485C-33.031605,-49.905151,25.333351,14.285030,54.268639,14.285030C54.737045,14.285030,55.195686,14.268311,55.648453,14.234356C86.612625,11.912106,63.398453,-39.681644,90.585953,-121.414063C117.773453,-203.146484,146.523453,-343.921906,146.523453,-343.921906Z" fill="rgb(112,112,112)" stroke="none" stroke-width="1"/></g><path id="branchescomplete-path-7" d="M0,-16.914000L80,39.109000L80,497C80,497,68.353000,532.187000,44.617000,529.633000C32.689000,528.353000,6.840000,527.534000,0,483.594000C-20,355.115000,0,-16.914000,0,-16.914000Z" transform="matrix(1 0 0 0.18118764170171 997.61145877499985 2174.02829213843370)" opacity="0" fill="rgb(44,44,44)" stroke="none" stroke-width="1"/></g><script><![CDATA[!function(t,n){"object"==typeof exports&&"undefined"!=typeof module?module.exports=n():"function"==typeof define&&define.amd?define(n):(t=t||self).__SVGATOR_PLAYER__=n()}(this,(function(){"use strict";function t(n){return(t="function"==typeof Symbol&&"symbol"==typeof Symbol.iterator?function(t){return typeof t}:function(t){return t&&"function"==typeof Symbol&&t.constructor===Symbol&&t!==Symbol.prototype?"symbol":typeof t})(n)}function n(t,n){if(!(t instanceof n))throw new TypeError("Cannot call a class as a function")}function r(t,n){for(var r=0;r<n.length;r++){var e=n[r];e.enumerable=e.enumerable||!1,e.configurable=!0,"value"in e&&(e.writable=!0),Object.defineProperty(t,e.key,e)}}function e(t,n,e){return n&&r(t.prototype,n),e&&r(t,e),t}function i(t){return(i=Object.setPrototypeOf?Object.getPrototypeOf:function(t){return t.__proto__||Object.getPrototypeOf(t)})(t)}function o(t,n){return(o=Object.setPrototypeOf||function(t,n){return t.__proto__=n,t})(t,n)}function u(t,n){return!n||"object"!=typeof n&&"function"!=typeof n?function(t){if(void 0===t)throw new ReferenceError("this hasn't been initialised - super() hasn't been called");return t}(t):n}function a(t){var n=function(){if("undefined"==typeof Reflect||!Reflect.construct)return!1;if(Reflect.construct.sham)return!1;if("function"==typeof Proxy)return!0;try{return Date.prototype.toString.call(Reflect.construct(Date,[],(function(){}))),!0}catch(t){return!1}}();return function(){var r,e=i(t);if(n){var o=i(this).constructor;r=Reflect.construct(e,arguments,o)}else r=e.apply(this,arguments);return u(this,r)}}function l(t,n,r){return(l="undefined"!=typeof Reflect&&Reflect.get?Reflect.get:function(t,n,r){var e=function(t,n){for(;!Object.prototype.hasOwnProperty.call(t,n)&&null!==(t=i(t)););return t}(t,n);if(e){var o=Object.getOwnPropertyDescriptor(e,n);return o.get?o.get.call(r):o.value}})(t,n,r||t)}var f=Math.abs;function s(t){return t}function c(t,n,r){var e=1-r;return 3*r*e*(t*e+n*r)+r*r*r}function h(){var t=arguments.length>0&&void 0!==arguments[0]?arguments[0]:0,n=arguments.length>1&&void 0!==arguments[1]?arguments[1]:0,r=arguments.length>2&&void 0!==arguments[2]?arguments[2]:1,e=arguments.length>3&&void 0!==arguments[3]?arguments[3]:1;return t<0||t>1||r<0||r>1?null:f(t-n)<=1e-5&&f(r-e)<=1e-5?s:function(i){if(i<=0)return t>0?i*n/t:0===n&&r>0?i*e/r:0;if(i>=1)return r<1?1+(i-1)*(e-1)/(r-1):1===r&&t<1?1+(i-1)*(n-1)/(t-1):1;for(var o,u=0,a=1;u<a;){var l=c(t,r,o=(u+a)/2);if(f(i-l)<1e-5)break;l<i?u=o:a=o}return c(n,e,o)}}function v(){return 1}function y(t){return 1===t?1:0}function d(){var t=arguments.length>0&&void 0!==arguments[0]?arguments[0]:1,n=arguments.length>1&&void 0!==arguments[1]?arguments[1]:0;if(1===t){if(0===n)return y;if(1===n)return v}var r=1/t;return function(t){return t>=1?1:(t+=n*r)-t%r}}function g(t){var n=arguments.length>1&&void 0!==arguments[1]?arguments[1]:2;if(Number.isInteger(t))return t;var r=Math.pow(10,n);return Math.round(t*r)/r}var p=Math.PI/180;function m(t,n,r){return t>=.5?r:n}function w(t,n,r){return 0===t||n===r?n:t*(r-n)+n}function b(t,n,r){var e=w(t,n,r);return e<=0?0:e}function k(t,n,r){return 0===t?n:1===t?r:{x:w(t,n.x,r.x),y:w(t,n.y,r.y)}}function x(t,n,r){var e=function(t,n,r){return Math.round(w(t,n,r))}(t,n,r);return e<=0?0:e>=255?255:e}function A(t,n,r){return 0===t?n:1===t?r:{r:x(t,n.r,r.r),g:x(t,n.g,r.g),b:x(t,n.b,r.b),a:w(t,null==n.a?1:n.a,null==r.a?1:r.a)}}function _(t,n,r){if(0===t)return n;if(1===t)return r;var e=n.length;if(e!==r.length)return m(t,n,r);for(var i=[],o=0;o<e;o++)i.push(A(t,n[o],r[o]));return i}function S(t,n){for(var r=[],e=0;e<t;e++)r.push(n);return r}function O(t,n){if(--n<=0)return t;var r=(t=Object.assign([],t)).length;do{for(var e=0;e<r;e++)t.push(t[e])}while(--n>0);return t}var M,j=function(){function t(r){n(this,t),this.list=r,this.length=r.length}return e(t,[{key:"setAttribute",value:function(t,n){for(var r=this.list,e=0;e<this.length;e++)r[e].setAttribute(t,n)}},{key:"removeAttribute",value:function(t){for(var n=this.list,r=0;r<this.length;r++)n[r].removeAttribute(t)}},{key:"style",value:function(t,n){for(var r=this.list,e=0;e<this.length;e++)r[e].style[t]=n}}]),t}(),F=/-./g,P=function(t,n){return n.toUpperCase()};function I(t){return"function"==typeof t?t:m}function q(t){return t?"function"==typeof t?t:Array.isArray(t)?function(t){var n=arguments.length>1&&void 0!==arguments[1]?arguments[1]:s;if(!Array.isArray(t))return n;switch(t.length){case 1:return d(t[0])||n;case 2:return d(t[0],t[1])||n;case 4:return h(t[0],t[1],t[2],t[3])||n}return n}(t,null):function(t,n){var r=arguments.length>2&&void 0!==arguments[2]?arguments[2]:s;switch(t){case"linear":return s;case"steps":return d(n.steps||1,n.jump||0)||r;case"bezier":case"cubic-bezier":return h(n.x1||0,n.y1||0,n.x2||0,n.y2||0)||r}return r}(t.type,t.value,null):null}function B(t,n,r){var e=arguments.length>3&&void 0!==arguments[3]&&arguments[3],i=n.length-1;if(t<=n[0].t)return e?[0,0,n[0].v]:n[0].v;if(t>=n[i].t)return e?[i,1,n[i].v]:n[i].v;var o,u=n[0],a=null;for(o=1;o<=i;o++){if(!(t>n[o].t)){a=n[o];break}u=n[o]}return null==a?e?[i,1,n[i].v]:n[i].v:u.t===a.t?e?[o,1,a.v]:a.v:(t=(t-u.t)/(a.t-u.t),u.e&&(t=u.e(t)),e?[o,t,r(t,u.v,a.v)]:r(t,u.v,a.v))}function R(t,n){var r=arguments.length>2&&void 0!==arguments[2]?arguments[2]:null;return t&&t.length?"function"!=typeof n?null:("function"!=typeof r&&(r=null),function(e){var i=B(e,t,n);return null!=i&&r&&(i=r(i)),i}):null}function E(t,n){return t.t-n.t}function T(n,r,e,i,o){var u,a="@"===e[0],l="#"===e[0],f=M[e],s=m;switch(a?(u=e.substr(1),e=u.replace(F,P)):l&&(e=e.substr(1)),t(f)){case"function":if(s=f(i,o,B,q,e,a,r,n),l)return s;break;case"string":s=R(i,I(f));break;case"object":if((s=R(i,I(f.i),f.f))&&"function"==typeof f.u)return f.u(r,s,e,a,n)}return s?function(t,n,r){var e=arguments.length>3&&void 0!==arguments[3]&&arguments[3];if(e)return t instanceof j?function(e){return t.style(n,r(e))}:function(e){return t.style[n]=r(e)};if(Array.isArray(n)){var i=n.length;return function(e){var o=r(e);if(null==o)for(var u=0;u<i;u++)t[u].removeAttribute(n);else for(var a=0;a<i;a++)t[a].setAttribute(n,o)}}return function(e){var i=r(e);null==i?t.removeAttribute(n):t.setAttribute(n,i)}}(r,e,s,a):null}function z(n,r,e,i){if(!i||"object"!==t(i))return null;var o=null,u=null;return Array.isArray(i)?u=function(t){if(!t||!t.length)return null;for(var n=0;n<t.length;n++)t[n].e&&(t[n].e=q(t[n].e));return t.sort(E)}(i):(u=i.keys,o=i.data||null),u?T(n,r,e,u,o):null}function C(t,n,r){if(!r)return null;var e=[];for(var i in r)if(r.hasOwnProperty(i)){var o=z(t,n,i,r[i]);o&&e.push(o)}return e.length?e:null}function D(t,n){if(!n.duration||n.duration<0)return null;var r=function(t,n){if(!n)return null;var r=[];if(Array.isArray(n))for(var e=n.length,i=0;i<e;i++){var o=n[i];if(2===o.length){var u=null;if("string"==typeof o[0])u=t.getElementById(o[0]);else if(Array.isArray(o[0])){u=[];for(var a=0;a<o[0].length;a++)if("string"==typeof o[0][a]){var l=t.getElementById(o[0][a]);l&&u.push(l)}u=u.length?1===u.length?u[0]:new j(u):null}if(u){var f=C(t,u,o[1]);f&&(r=r.concat(f))}}}else for(var s in n)if(n.hasOwnProperty(s)){var c=t.getElementById(s);if(c){var h=C(t,c,n[s]);h&&(r=r.concat(h))}}return r.length?r:null}(t,n.elements);return r?function(t,n){var r=arguments.length>2&&void 0!==arguments[2]?arguments[2]:1/0,e=arguments.length>3&&void 0!==arguments[3]?arguments[3]:1,i=arguments.length>4&&void 0!==arguments[4]&&arguments[4],o=arguments.length>5&&void 0!==arguments[5]?arguments[5]:1,u=t.length,a=e>0?n:0;i&&r%2==0&&(a=n-a);var l=null;return function(f,s){var c=f%n,h=1+(f-c)/n;s*=e,i&&h%2==0&&(s=-s);var v=!1;if(h>r)c=a,v=!0,-1===o&&(c=e>0?0:n);else if(s<0&&(c=n-c),c===l)return!1;l=c;for(var y=0;y<u;y++)t[y](c);return v}}(r,n.duration,n.iterations||1/0,n.direction||1,!!n.alternate,n.fill||1):null}function N(t,n){if(M=n,!t||!t.root||!Array.isArray(t.animations))return null;var r=window.document.getElementById(t.root);if(!r)return null;var e=t.animations.map((function(t){return D(r,t)})).filter((function(t){return!!t}));return e.length?{element:r,animations:e,animationSettings:t.animationSettings,options:t.options||void 0}:null}var L=function(){function t(r,e){var i=arguments.length>2&&void 0!==arguments[2]?arguments[2]:{};n(this,t),this._id=0,this._running=!1,this._rollingBack=!1,this._animations=r,this.duration=e.duration,this.alternate=e.alternate,this.fill=e.fill,this.iterations=e.iterations,this.direction=i.direction||1,this.speed=i.speed||1,this.fps=i.fps||100,this.offset=i.offset||0,this.rollbackStartOffset=0}return e(t,[{key:"_rollback",value:function(){var t=this,n=1/0,r=null;this.rollbackStartOffset=this.offset,this._rollingBack||(this._rollingBack=!0,this._running=!0);this._id=window.requestAnimationFrame((function e(i){if(t._rollingBack){null==r&&(r=i);var o=i-r,u=t.rollbackStartOffset-o,a=Math.round(u*t.speed);if(a>t.duration&&n!=1/0){var l=!!t.alternate&&a/t.duration%2>1,f=a%t.duration;a=(f+=l?t.duration:0)||t.duration}var s=t.fps?1e3/t.fps:0,c=Math.max(0,a);if(c<n-s){t.offset=c,n=c;for(var h=t._animations,v=h.length,y=0;y<v;y++)h[y](c,t.direction)}var d=!1;if(t.iterations>0&&-1===t.fill){var g=t.iterations*t.duration,p=g==a;a=p?0:a,t.offset=p?0:t.offset,d=a>g}a>0&&t.offset>=a&&!d?t._id=window.requestAnimationFrame(e):t.stop()}}))}},{key:"_start",value:function(){var t=this,n=arguments.length>0&&void 0!==arguments[0]?arguments[0]:0,r=-1/0,e=null,i={},o=function o(u){t._running=!0,null==e&&(e=u);var a=Math.round((u-e+n)*t.speed),l=t.fps?1e3/t.fps:0;if(a>r+l&&!t._rollingBack){t.offset=a,r=a;for(var f=t._animations,s=f.length,c=0,h=0;h<s;h++)i[h]?c++:(i[h]=f[h](a,t.direction),i[h]&&c++);if(c===s)return void t._stop()}t._id=window.requestAnimationFrame(o)};this._id=window.requestAnimationFrame(o)}},{key:"_stop",value:function(){this._id&&window.cancelAnimationFrame(this._id),this._running=!1,this._rollingBack=!1}},{key:"play",value:function(){!this._rollingBack&&this._running||(this._rollingBack=!1,this.rollbackStartOffset>this.duration&&(this.offset=this.rollbackStartOffset-(this.rollbackStartOffset-this.offset)%this.duration,this.rollbackStartOffset=0),this._start(this.offset))}},{key:"stop",value:function(){this._stop(),this.offset=0,this.rollbackStartOffset=0;var t=this.direction,n=this._animations;window.requestAnimationFrame((function(){for(var r=0;r<n.length;r++)n[r](0,t)}))}},{key:"reachedToEnd",value:function(){return this.iterations>0&&this.offset>=this.iterations*this.duration}},{key:"restart",value:function(){this._stop(),this.offset=0,this._start()}},{key:"pause",value:function(){this._stop()}},{key:"reverse",value:function(){this.direction=-this.direction}}],[{key:"build",value:function(n,r){return(n=N(n,r))?{el:n.element,options:n.options||{},player:new t(n.animations,n.animationSettings,n.options)}:null}}]),t}();!function(){for(var t=0,n=["ms","moz","webkit","o"],r=0;r<n.length&&!window.requestAnimationFrame;++r)window.requestAnimationFrame=window[n[r]+"RequestAnimationFrame"],window.cancelAnimationFrame=window[n[r]+"CancelAnimationFrame"]||window[n[r]+"CancelRequestAnimationFrame"];window.requestAnimationFrame||(window.requestAnimationFrame=function(n){var r=Date.now(),e=Math.max(0,16-(r-t)),i=window.setTimeout((function(){n(r+e)}),e);return t=r+e,i},window.cancelAnimationFrame=window.clearTimeout)}();var V=/\.0+$/g;function $(t){return Number.isInteger(t)?t+"":t.toFixed(6).replace(V,"")}function G(t){return t?null==t.a||t.a>=1?"rgb("+t.r+","+t.g+","+t.b+")":"rgba("+t.r+","+t.g+","+t.b+","+t.a+")":"transparent"}var H={f:null,i:function(t,n,r){return 0===t?n:1===t?r:{x:b(t,n.x,r.x),y:b(t,n.y,r.y)}},u:function(t,n){return function(r){var e=n(r);t.setAttribute("rx",$(e.x)),t.setAttribute("ry",$(e.y))}}},Q={f:null,i:function(t,n,r){return 0===t?n:1===t?r:{width:b(t,n.width,r.width),height:b(t,n.height,r.height)}},u:function(t,n){return function(r){var e=n(r);t.setAttribute("width",$(e.width)),t.setAttribute("height",$(e.height))}}},U=Math.sin,Y=Math.cos,Z=Math.acos,J=Math.asin,K=Math.tan,W=Math.atan2,X=Math.PI/180,tt=180/Math.PI,nt=Math.sqrt,rt=function(){function t(){var r=arguments.length>0&&void 0!==arguments[0]?arguments[0]:1,e=arguments.length>1&&void 0!==arguments[1]?arguments[1]:0,i=arguments.length>2&&void 0!==arguments[2]?arguments[2]:0,o=arguments.length>3&&void 0!==arguments[3]?arguments[3]:1,u=arguments.length>4&&void 0!==arguments[4]?arguments[4]:0,a=arguments.length>5&&void 0!==arguments[5]?arguments[5]:0;n(this,t),this.m=[r,e,i,o,u,a],this.i=null,this.w=null,this.s=null}return e(t,[{key:"point",value:function(t,n){var r=this.m;return{x:r[0]*t+r[2]*n+r[4],y:r[1]*t+r[3]*n+r[5]}}},{key:"translateSelf",value:function(){var t=arguments.length>0&&void 0!==arguments[0]?arguments[0]:0,n=arguments.length>1&&void 0!==arguments[1]?arguments[1]:0;if(!t&&!n)return this;var r=this.m;return r[4]+=r[0]*t+r[2]*n,r[5]+=r[1]*t+r[3]*n,this.w=this.s=this.i=null,this}},{key:"rotateSelf",value:function(){var t=arguments.length>0&&void 0!==arguments[0]?arguments[0]:0;if(t%=360){var n=U(t*=X),r=Y(t),e=this.m,i=e[0],o=e[1];e[0]=i*r+e[2]*n,e[1]=o*r+e[3]*n,e[2]=e[2]*r-i*n,e[3]=e[3]*r-o*n,this.w=this.s=this.i=null}return this}},{key:"scaleSelf",value:function(){var t=arguments.length>0&&void 0!==arguments[0]?arguments[0]:1,n=arguments.length>1&&void 0!==arguments[1]?arguments[1]:1;if(1!==t||1!==n){var r=this.m;r[0]*=t,r[1]*=t,r[2]*=n,r[3]*=n,this.w=this.s=this.i=null}return this}},{key:"skewSelf",value:function(t,n){if(n%=360,(t%=360)||n){var r=this.m,e=r[0],i=r[1],o=r[2],u=r[3];t&&(t=K(t*X),r[2]+=e*t,r[3]+=i*t),n&&(n=K(n*X),r[0]+=o*n,r[1]+=u*n),this.w=this.s=this.i=null}return this}},{key:"resetSelf",value:function(){var t=arguments.length>0&&void 0!==arguments[0]?arguments[0]:1,n=arguments.length>1&&void 0!==arguments[1]?arguments[1]:0,r=arguments.length>2&&void 0!==arguments[2]?arguments[2]:0,e=arguments.length>3&&void 0!==arguments[3]?arguments[3]:1,i=arguments.length>4&&void 0!==arguments[4]?arguments[4]:0,o=arguments.length>5&&void 0!==arguments[5]?arguments[5]:0,u=this.m;return u[0]=t,u[1]=n,u[2]=r,u[3]=e,u[4]=i,u[5]=o,this.w=this.s=this.i=null,this}},{key:"recomposeSelf",value:function(){var t=arguments.length>0&&void 0!==arguments[0]?arguments[0]:null,n=arguments.length>1&&void 0!==arguments[1]?arguments[1]:null,r=arguments.length>2&&void 0!==arguments[2]?arguments[2]:null,e=arguments.length>3&&void 0!==arguments[3]?arguments[3]:null,i=arguments.length>4&&void 0!==arguments[4]?arguments[4]:null;return this.isIdentity||this.resetSelf(),t&&(t.x||t.y)&&this.translateSelf(t.x,t.y),n&&this.rotateSelf(n),r&&(r.x&&this.skewSelf(r.x,0),r.y&&this.skewSelf(0,r.y)),!e||1===e.x&&1===e.y||this.scaleSelf(e.x,e.y),i&&(i.x||i.y)&&this.translateSelf(i.x,i.y),this}},{key:"decompose",value:function(){var t=arguments.length>0&&void 0!==arguments[0]?arguments[0]:0,n=arguments.length>1&&void 0!==arguments[1]?arguments[1]:0,r=this.m,e=r[0]*r[0]+r[1]*r[1],i=[[r[0],r[1]],[r[2],r[3]]],o=nt(e);if(0===o)return{origin:{x:r[4],y:r[5]},translate:{x:t,y:n},scale:{x:0,y:0},skew:{x:0,y:0},rotate:0};i[0][0]/=o,i[0][1]/=o;var u=r[0]*r[3]-r[1]*r[2]<0;u&&(o=-o);var a=i[0][0]*i[1][0]+i[0][1]*i[1][1];i[1][0]-=i[0][0]*a,i[1][1]-=i[0][1]*a;var l=nt(i[1][0]*i[1][0]+i[1][1]*i[1][1]);if(0===l)return{origin:{x:r[4],y:r[5]},translate:{x:t,y:n},scale:{x:o,y:0},skew:{x:0,y:0},rotate:0};i[1][0]/=l,i[1][1]/=l,a/=l;var f=0;return i[1][1]<0?(f=Z(i[1][1])*tt,i[0][1]<0&&(f=360-f)):f=J(i[0][1])*tt,u&&(f=-f),a=W(a,nt(i[0][0]*i[0][0]+i[0][1]*i[0][1]))*tt,{origin:{x:r[4],y:r[5]},translate:{x:t,y:n},scale:{x:o,y:l},skew:{x:a,y:0},rotate:f}}},{key:"toString",value:function(){return null===this.s&&(this.s="matrix("+this.m.map(it).join(" ")+")"),this.s}},{key:"determinant",get:function(){var t=this.m;return t[0]*t[3]-t[1]*t[2]}},{key:"isIdentity",get:function(){if(null===this.i){var t=this.m;this.i=1===t[0]&&0===t[1]&&0===t[2]&&1===t[3]&&0===t[4]&&0===t[5]}return this.i}}]),t}(),et=/\.0+$/;function it(t){return Number.isInteger(t)?t:t.toFixed(14).replace(et,"")}Object.freeze({M:2,L:2,Z:0,H:1,V:1,C:6,Q:4,T:2,S:4,A:7});function ot(t,n,r){return t+(n-t)*r}function ut(t,n,r){var e=arguments.length>3&&void 0!==arguments[3]&&arguments[3],i={x:ot(t.x,n.x,r),y:ot(t.y,n.y,r)};return e&&(i.a=at(t,n)),i}function at(t,n){return Math.atan2(n.y-t.y,n.x-t.x)}function lt(t,n,r,e){var i=1-e;return i*i*t+2*i*e*n+e*e*r}function ft(t,n,r,e){return 2*(1-e)*(n-t)+2*e*(r-n)}function st(t,n,r,e){var i=arguments.length>4&&void 0!==arguments[4]&&arguments[4],o={x:lt(t.x,n.x,r.x,e),y:lt(t.y,n.y,r.y,e)};return i&&(o.a=ct(t,n,r,e)),o}function ct(t,n,r,e){return Math.atan2(ft(t.y,n.y,r.y,e),ft(t.x,n.x,r.x,e))}function ht(t,n,r,e,i){var o=i*i;return i*o*(e-t+3*(n-r))+3*o*(t+r-2*n)+3*i*(n-t)+t}function vt(t,n,r,e,i){var o=1-i;return 3*(o*o*(n-t)+2*o*i*(r-n)+i*i*(e-r))}function yt(t,n,r,e,i){var o=arguments.length>5&&void 0!==arguments[5]&&arguments[5],u={x:ht(t.x,n.x,r.x,e.x,i),y:ht(t.y,n.y,r.y,e.y,i)};return o&&(u.a=dt(t,n,r,e,i)),u}function dt(t,n,r,e,i){return Math.atan2(vt(t.y,n.y,r.y,e.y,i),vt(t.x,n.x,r.x,e.x,i))}function gt(t,n,r){var e=arguments.length>3&&void 0!==arguments[3]&&arguments[3];if(mt(n)){if(wt(r))return st(n,r.start,r,t,e)}else if(mt(r)){if(n.end)return st(n,n.end,r,t,e)}else{if(n.end)return r.start?yt(n,n.end,r.start,r,t,e):st(n,n.end,r,t,e);if(r.start)return st(n,r.start,r,t,e)}return ut(n,r,t,e)}function pt(t,n,r){var e=gt(t,n,r,!0);return e.a=function(t){var n=arguments.length>1&&void 0!==arguments[1]&&arguments[1];return n?t+Math.PI:t}(e.a)/p,e}function mt(t){return!t.type||"corner"===t.type}function wt(t){return null!=t.start&&!mt(t)}var bt=new rt;var kt={f:$,i:w},xt={f:$,i:function(t,n,r){var e=w(t,n,r);return e<=0?0:e>=1?1:e}};function At(t,n,r,e,i,o,u,a){return n=function(t,n,r){for(var e,i,o,u=t.length-1,a={},l=0;l<=u;l++)(e=t[l]).e&&(e.e=n(e.e)),e.v&&"g"===(i=e.v).t&&i.r&&(o=r.getElementById(i.r))&&(a[i.r]=o.querySelectorAll("stop"));return a}(t,e,a),function(e){var i,o=r(e,t,_t);return o?"c"===o.t?G(o.v):"g"===o.t?(n[o.r]&&function(t,n){for(var r=0,e=t.length;r<e;r++)t[r].setAttribute("stop-color",G(n[r]))}(n[o.r],o.v),(i=o.r)?"url(#"+i+")":"none"):"none":"none"}}function _t(t,n,r){if(0===t)return n;if(1===t)return r;if(n&&r){var e=n.t;if(e===r.t)switch(n.t){case"c":return{t:e,v:A(t,n.v,r.v)};case"g":if(n.r===r.r)return{t:e,v:_(t,n.v,r.v),r:n.r}}}return m(t,n,r)}var St={fill:At,"fill-opacity":xt,stroke:At,"stroke-opacity":xt,"stroke-width":kt,"stroke-dashoffset":{f:$,i:w},"stroke-dasharray":{f:function(t){var n=arguments.length>1&&void 0!==arguments[1]?arguments[1]:" ";return t&&t.length?t.map($).join(n):""},i:function(t,n,r){var e,i,o,u=n.length,a=r.length;if(u!==a)if(0===u)n=S(u=a,0);else if(0===a)a=u,r=S(u,0);else{var l=(o=(e=u)*(i=a)/function(t,n){for(var r;n;)r=n,n=t%n,t=r;return t||1}(e,i))<0?-o:o;n=O(n,Math.floor(l/u)),r=O(r,Math.floor(l/a)),u=a=l}for(var f=[],s=0;s<u;s++)f.push(g(b(t,n[s],r[s]),6));return f}},opacity:xt,transform:function(n,r,e,i){if(!(n=function(n,r){if(!n||"object"!==t(n))return null;var e=!1;for(var i in n)n.hasOwnProperty(i)&&(n[i]&&n[i].length?(n[i].forEach((function(t){t.e&&(t.e=r(t.e))})),e=!0):delete n[i]);return e?n:null}(n,i)))return null;var o=function(t,i,o){var u=arguments.length>3&&void 0!==arguments[3]?arguments[3]:null;return n[t]?e(i,n[t],o):r&&r[t]?r[t]:u};return r&&r.a&&n.o?function(t){var r=e(t,n.o,pt);return bt.recomposeSelf(r,o("r",t,w,0)+r.a,o("k",t,k),o("s",t,k),o("t",t,k)).toString()}:function(t){return bt.recomposeSelf(o("o",t,gt,null),o("r",t,w,0),o("k",t,k),o("s",t,k),o("t",t,k)).toString()}},r:kt,"#size":Q,"#radius":H,_:function(t,n){if(Array.isArray(t))for(var r=0;r<t.length;r++)this[t[r]]=n;else this[t]=n}};return function(t){!function(t,n){if("function"!=typeof n&&null!==n)throw new TypeError("Super expression must either be null or a function");t.prototype=Object.create(n&&n.prototype,{constructor:{value:t,writable:!0,configurable:!0}}),n&&o(t,n)}(u,t);var r=a(u);function u(){return n(this,u),r.apply(this,arguments)}return e(u,null,[{key:"build",value:function(t){var n=l(i(u),"build",this).call(this,t,St),r=(n.el,n.options,n.player);return function(t){t.play()}(r),r}}]),u}(L)}));
__SVGATOR_PLAYER__.build({"root":"branchescomplete","animations":[{"duration":3500,"direction":1,"iterations":1,"fill":1,"alternate":false,"elements":{"branchescomplete-path-1":{"transform":{"data":{"r":6.9999815298408095},"keys":{"o":[{"t":1600,"v":{"x":855.8419359799996,"y":1508.7833389999996,"type":"corner"}},{"t":2400,"v":{"x":667.0506487199998,"y":1430.51670612,"type":"corner"}}],"s":[{"t":1600,"v":{"x":0.5,"y":0.8}},{"t":2400,"v":{"x":1,"y":0.9999998076384815}}]}},"opacity":[{"t":1600,"v":0},{"t":2700,"v":1}]},"branchescomplete-path-2":{"transform":{"data":{"r":15.999975600940244},"keys":{"o":[{"t":1500,"v":{"x":1050.01803423,"y":1811.6793360000013,"type":"corner"}},{"t":2300,"v":{"x":1065.3419004599996,"y":1705.4029771550017,"type":"corner"}}],"s":[{"t":1500,"v":{"x":0.5,"y":0.5}},{"t":2300,"v":{"x":1,"y":1}}]}},"opacity":[{"t":1500,"v":0},{"t":2600,"v":1}]},"branchescomplete-path-5":{"transform":{"data":{"r":-8.999976735956185,"k":{"x":1.5902779913941314e-15,"y":0}},"keys":{"o":[{"t":2300,"v":{"x":1020.5491549099938,"y":2099.1096530000004,"type":"corner"}},{"t":3100,"v":{"x":1021.239709524994,"y":1970.0432139999996,"type":"corner"}}],"s":[{"t":2300,"v":{"x":0.5,"y":0.5}},{"t":3100,"v":{"x":1,"y":1}}]}},"opacity":[{"t":2300,"v":0},{"t":3500,"v":1}]},"branchescomplete-path-6":{"transform":{"keys":{"o":[{"t":1500,"v":{"x":881.8279332249998,"y":1694.2297952849995,"type":"corner"}},{"t":2300,"v":{"x":768.7155485800001,"y":1591.958077055,"type":"corner"}}],"s":[{"t":1500,"v":{"x":0.455825630192676,"y":0.4152433661276518}},{"t":2300,"v":{"x":1,"y":1}}]}},"opacity":[{"t":1500,"v":0},{"t":2600,"v":1}]},"branchescomplete-path-7":{"transform":{"data":{"t":{"x":-35.56,"y":-256.43}},"keys":{"o":[{"t":0,"v":{"x":1033.1714587749998,"y":2220.4902391000032,"type":"corner"}},{"t":1300,"v":{"x":1031.2695975349998,"y":2020.381272065004,"type":"corner"}}],"s":[{"t":0,"v":{"x":1,"y":0.1811876417017101}},{"t":1300,"v":{"x":1,"y":0.9568136245631291}}]}},"opacity":[{"t":0,"v":0},{"t":1300,"v":1}]}}}],"options":{"start":"load","hover":"freeze","click":"freeze","scroll":25,"exportedIds":"names","title":"BranchesComplete"},"animationSettings":{"duration":3500,"direction":1,"iterations":1,"fill":1,"alternate":false}})]]></script></svg>